<svg id="svg" version="1.1" xmlns="http://www.w3.org/2000/svg" xmlns:xlink="http://www.w3.org/1999/xlink" width="400" height="400" viewBox="0, 0, 400,400"><g id="svgg"><path id="path0" d="M133.600 182.000 C 133.283 182.440,132.703 182.800,132.312 182.800 C 131.920 182.800,131.600 182.980,131.600 183.200 C 131.600 183.420,131.322 183.600,130.982 183.600 C 128.966 183.600,127.279 188.478,129.100 189.042 C 129.485 189.161,130.133 189.438,130.539 189.657 C 131.476 190.162,131.421 190.266,131.843 187.200 L 132.200 184.600 144.600 184.488 C 160.119 184.348,158.924 184.067,158.735 187.818 C 158.623 190.040,158.714 190.800,159.092 190.800 C 159.465 190.800,159.600 189.843,159.600 187.200 L 159.600 183.600 147.951 183.600 C 137.686 183.600,136.361 183.529,136.796 183.005 C 137.587 182.051,136.977 181.200,135.501 181.200 C 134.635 181.200,133.977 181.477,133.600 182.000 M173.200 184.800 C 173.200 186.155,173.798 186.416,174.116 185.200 C 174.391 184.147,180.659 183.966,181.055 185.000 C 181.418 185.946,182.000 185.700,182.000 184.600 L 182.000 183.600 177.600 183.600 L 173.200 183.600 173.200 184.800 M192.400 184.100 C 192.400 184.463,193.387 184.600,196.000 184.600 C 198.613 184.600,199.600 184.463,199.600 184.100 C 199.600 183.737,198.613 183.600,196.000 183.600 C 193.387 183.600,192.400 183.737,192.400 184.100 M210.500 184.198 C 209.918 184.860,209.828 186.400,210.372 186.400 C 210.577 186.400,210.802 185.995,210.872 185.500 C 210.992 184.655,211.216 184.593,214.500 184.484 C 216.425 184.421,218.000 184.196,218.000 183.984 C 218.000 183.339,211.083 183.536,210.500 184.198 M235.600 201.600 C 235.600 213.206,235.741 219.600,235.996 219.600 C 236.249 219.600,236.429 213.306,236.496 202.100 L 236.600 184.600 244.900 184.492 C 249.979 184.426,253.200 184.232,253.200 183.992 C 253.200 183.748,249.879 183.600,244.400 183.600 L 235.600 183.600 235.600 201.600 M254.800 184.800 C 254.800 185.020,255.340 185.200,256.000 185.200 C 256.660 185.200,257.200 185.020,257.200 184.800 C 257.200 184.580,256.660 184.400,256.000 184.400 C 255.340 184.400,254.800 184.580,254.800 184.800 M191.600 186.200 C 191.600 186.750,191.780 187.200,192.000 187.200 C 192.220 187.200,192.400 186.750,192.400 186.200 C 192.400 185.650,192.220 185.200,192.000 185.200 C 191.780 185.200,191.600 185.650,191.600 186.200 M199.600 186.200 C 199.600 186.750,199.780 187.200,200.000 187.200 C 200.220 187.200,200.400 186.750,200.400 186.200 C 200.400 185.650,200.220 185.200,200.000 185.200 C 199.780 185.200,199.600 185.650,199.600 186.200 M257.600 185.600 C 257.600 185.820,257.870 186.000,258.200 186.000 C 258.530 186.000,258.800 185.820,258.800 185.600 C 258.800 185.380,258.530 185.200,258.200 185.200 C 257.870 185.200,257.600 185.380,257.600 185.600 M259.200 186.304 C 259.200 186.720,260.827 187.706,261.087 187.447 C 261.361 187.172,260.180 186.000,259.629 186.000 C 259.393 186.000,259.200 186.137,259.200 186.304 M217.200 187.400 C 217.200 187.950,217.380 188.400,217.600 188.400 C 217.820 188.400,218.000 187.950,218.000 187.400 C 218.000 186.850,217.820 186.400,217.600 186.400 C 217.380 186.400,217.200 186.850,217.200 187.400 M174.000 187.976 C 174.000 188.649,174.180 189.200,174.400 189.200 C 174.620 189.200,174.800 188.761,174.800 188.224 C 174.800 187.687,174.620 187.136,174.400 187.000 C 174.167 186.856,174.000 187.263,174.000 187.976 M182.000 188.376 C 182.000 189.049,182.180 189.600,182.400 189.600 C 182.620 189.600,182.800 189.161,182.800 188.624 C 182.800 188.087,182.620 187.536,182.400 187.400 C 182.167 187.256,182.000 187.663,182.000 188.376 M209.200 188.800 C 209.200 189.460,209.380 190.000,209.600 190.000 C 209.820 190.000,210.000 189.460,210.000 188.800 C 210.000 188.140,209.820 187.600,209.600 187.600 C 209.380 187.600,209.200 188.140,209.200 188.800 M190.800 189.400 C 190.800 189.950,190.980 190.400,191.200 190.400 C 191.420 190.400,191.600 189.950,191.600 189.400 C 191.600 188.850,191.420 188.400,191.200 188.400 C 190.980 188.400,190.800 188.850,190.800 189.400 M200.400 189.400 C 200.400 189.950,200.580 190.400,200.800 190.400 C 201.020 190.400,201.200 189.950,201.200 189.400 C 201.200 188.850,201.020 188.400,200.800 188.400 C 200.580 188.400,200.400 188.850,200.400 189.400 M216.400 191.200 C 216.400 191.860,216.580 192.400,216.800 192.400 C 217.020 192.400,217.200 191.860,217.200 191.200 C 217.200 190.540,217.020 190.000,216.800 190.000 C 216.580 190.000,216.400 190.540,216.400 191.200 M263.766 190.500 C 263.895 190.775,264.111 191.315,264.246 191.700 C 264.382 192.085,264.652 192.400,264.847 192.400 C 265.041 192.400,265.200 192.850,265.200 193.400 C 265.200 193.950,265.380 194.400,265.600 194.400 C 265.820 194.400,266.000 194.051,266.000 193.624 C 266.000 193.197,265.820 192.736,265.600 192.600 C 265.380 192.464,265.200 192.081,265.200 191.748 C 265.200 191.140,264.284 190.000,263.795 190.000 C 263.651 190.000,263.638 190.225,263.766 190.500 M174.800 191.576 C 174.800 192.223,174.980 192.864,175.200 193.000 C 175.438 193.147,175.600 192.671,175.600 191.824 C 175.600 191.041,175.420 190.400,175.200 190.400 C 174.980 190.400,174.800 190.929,174.800 191.576 M243.600 201.776 L 243.600 213.200 247.600 213.200 C 250.000 213.200,251.600 213.040,251.600 212.800 C 251.600 212.563,250.133 212.400,248.000 212.400 L 244.400 212.400 244.400 201.624 C 244.400 194.871,244.251 190.755,244.000 190.600 C 243.737 190.437,243.600 194.263,243.600 201.776 M141.200 205.200 C 141.200 214.533,141.341 219.600,141.600 219.600 C 141.859 219.600,142.000 214.533,142.000 205.200 C 142.000 195.867,141.859 190.800,141.600 190.800 C 141.341 190.800,141.200 195.867,141.200 205.200 M182.800 192.000 C 182.800 192.660,182.980 193.200,183.200 193.200 C 183.420 193.200,183.600 192.660,183.600 192.000 C 183.600 191.340,183.420 190.800,183.200 190.800 C 182.980 190.800,182.800 191.340,182.800 192.000 M250.800 191.200 C 250.800 191.420,251.250 191.600,251.800 191.600 C 252.350 191.600,252.800 191.420,252.800 191.200 C 252.800 190.980,252.350 190.800,251.800 190.800 C 251.250 190.800,250.800 190.980,250.800 191.200 M190.000 192.600 C 190.000 193.150,190.180 193.600,190.400 193.600 C 190.620 193.600,190.800 193.150,190.800 192.600 C 190.800 192.050,190.620 191.600,190.400 191.600 C 190.180 191.600,190.000 192.050,190.000 192.600 M201.200 192.600 C 201.200 193.150,201.380 193.600,201.600 193.600 C 201.820 193.600,202.000 193.150,202.000 192.600 C 202.000 192.050,201.820 191.600,201.600 191.600 C 201.380 191.600,201.200 192.050,201.200 192.600 M208.400 192.600 C 208.400 193.150,208.580 193.600,208.800 193.600 C 209.020 193.600,209.200 193.150,209.200 192.600 C 209.200 192.050,209.020 191.600,208.800 191.600 C 208.580 191.600,208.400 192.050,208.400 192.600 M253.200 192.000 C 253.200 192.220,253.476 192.400,253.813 192.400 C 254.609 192.400,257.200 194.991,257.200 195.787 C 257.200 196.124,257.380 196.400,257.600 196.400 C 257.820 196.400,258.000 196.040,258.000 195.600 C 258.000 195.160,257.820 194.800,257.600 194.800 C 257.380 194.800,257.200 194.610,257.200 194.377 C 257.200 193.712,254.699 191.600,253.911 191.600 C 253.520 191.600,253.200 191.780,253.200 192.000 M215.600 194.600 C 215.600 195.150,215.780 195.600,216.000 195.600 C 216.220 195.600,216.400 195.150,216.400 194.600 C 216.400 194.050,216.220 193.600,216.000 193.600 C 215.780 193.600,215.600 194.050,215.600 194.600 M175.600 195.200 C 175.600 195.860,175.780 196.400,176.000 196.400 C 176.220 196.400,176.400 195.860,176.400 195.200 C 176.400 194.540,176.220 194.000,176.000 194.000 C 175.780 194.000,175.600 194.540,175.600 195.200 M183.600 195.800 C 183.600 196.350,183.780 196.800,184.000 196.800 C 184.220 196.800,184.400 196.350,184.400 195.800 C 184.400 195.250,184.220 194.800,184.000 194.800 C 183.780 194.800,183.600 195.250,183.600 195.800 M189.200 195.800 C 189.200 196.350,189.380 196.800,189.600 196.800 C 189.820 196.800,190.000 196.350,190.000 195.800 C 190.000 195.250,189.820 194.800,189.600 194.800 C 189.380 194.800,189.200 195.250,189.200 195.800 M202.000 195.600 C 202.000 196.040,202.180 196.400,202.400 196.400 C 202.620 196.400,202.800 196.040,202.800 195.600 C 202.800 195.160,202.620 194.800,202.400 194.800 C 202.180 194.800,202.000 195.160,202.000 195.600 M207.600 195.976 C 207.600 196.623,207.780 197.264,208.000 197.400 C 208.238 197.547,208.400 197.071,208.400 196.224 C 208.400 195.441,208.220 194.800,208.000 194.800 C 207.780 194.800,207.600 195.329,207.600 195.976 M266.000 196.376 C 266.000 197.269,266.180 198.000,266.400 198.000 C 266.620 198.000,266.800 197.381,266.800 196.624 C 266.800 195.867,266.620 195.136,266.400 195.000 C 266.158 194.851,266.000 195.396,266.000 196.376 M214.800 198.200 C 214.800 198.970,214.980 199.600,215.200 199.600 C 215.420 199.600,215.600 198.970,215.600 198.200 C 215.600 197.430,215.420 196.800,215.200 196.800 C 214.980 196.800,214.800 197.430,214.800 198.200 M195.606 198.100 C 195.603 198.705,195.420 199.200,195.200 199.200 C 194.980 199.200,194.800 199.650,194.800 200.200 C 194.800 200.750,194.980 201.200,195.200 201.200 C 195.420 201.200,195.600 200.840,195.600 200.400 C 195.600 199.960,195.780 199.600,196.000 199.600 C 196.508 199.600,196.508 198.386,196.000 197.600 C 195.698 197.132,195.611 197.243,195.606 198.100 M202.800 198.376 C 202.800 199.049,202.980 199.600,203.200 199.600 C 203.420 199.600,203.600 199.161,203.600 198.624 C 203.600 198.087,203.420 197.536,203.200 197.400 C 202.967 197.256,202.800 197.663,202.800 198.376 M258.000 198.400 C 258.000 199.060,258.180 199.600,258.400 199.600 C 258.620 199.600,258.800 199.060,258.800 198.400 C 258.800 197.740,258.620 197.200,258.400 197.200 C 258.180 197.200,258.000 197.740,258.000 198.400 M176.400 198.600 C 176.400 199.150,176.580 199.600,176.800 199.600 C 177.020 199.600,177.200 199.150,177.200 198.600 C 177.200 198.050,177.020 197.600,176.800 197.600 C 176.580 197.600,176.400 198.050,176.400 198.600 M184.400 199.400 C 184.400 200.170,184.580 200.800,184.800 200.800 C 185.020 200.800,185.200 200.170,185.200 199.400 C 185.200 198.630,185.020 198.000,184.800 198.000 C 184.580 198.000,184.400 198.630,184.400 199.400 M188.400 199.000 C 188.400 199.550,188.580 200.000,188.800 200.000 C 189.020 200.000,189.200 199.550,189.200 199.000 C 189.200 198.450,189.020 198.000,188.800 198.000 C 188.580 198.000,188.400 198.450,188.400 199.000 M206.800 200.000 C 206.800 200.660,206.980 201.200,207.200 201.200 C 207.420 201.200,207.600 200.660,207.600 200.000 C 207.600 199.340,207.420 198.800,207.200 198.800 C 206.980 198.800,206.800 199.340,206.800 200.000 M203.600 201.600 C 203.600 202.260,203.780 202.800,204.000 202.800 C 204.220 202.800,204.400 202.260,204.400 201.600 C 204.400 200.940,204.220 200.400,204.000 200.400 C 203.780 200.400,203.600 200.940,203.600 201.600 M214.000 201.600 C 214.000 202.260,214.180 202.800,214.400 202.800 C 214.620 202.800,214.800 202.260,214.800 201.600 C 214.800 200.940,214.620 200.400,214.400 200.400 C 214.180 200.400,214.000 200.940,214.000 201.600 M196.400 201.800 C 196.400 202.350,196.580 202.800,196.800 202.800 C 197.020 202.800,197.200 202.350,197.200 201.800 C 197.200 201.250,197.020 200.800,196.800 200.800 C 196.580 200.800,196.400 201.250,196.400 201.800 M177.200 202.400 C 177.200 203.060,177.380 203.600,177.600 203.600 C 177.820 203.600,178.000 203.060,178.000 202.400 C 178.000 201.740,177.820 201.200,177.600 201.200 C 177.380 201.200,177.200 201.740,177.200 202.400 M187.600 202.200 C 187.600 202.750,187.780 203.200,188.000 203.200 C 188.220 203.200,188.400 202.750,188.400 202.200 C 188.400 201.650,188.220 201.200,188.000 201.200 C 187.780 201.200,187.600 201.650,187.600 202.200 M185.200 203.200 C 185.200 203.860,185.380 204.400,185.600 204.400 C 185.820 204.400,186.000 203.860,186.000 203.200 C 186.000 202.540,185.820 202.000,185.600 202.000 C 185.380 202.000,185.200 202.540,185.200 203.200 M206.267 202.267 C 205.845 202.688,205.956 204.800,206.400 204.800 C 206.620 204.800,206.800 204.170,206.800 203.400 C 206.800 201.961,206.727 201.806,206.267 202.267 M194.000 203.400 C 194.000 203.950,194.180 204.400,194.400 204.400 C 194.620 204.400,194.800 203.950,194.800 203.400 C 194.800 202.850,194.620 202.400,194.400 202.400 C 194.180 202.400,194.000 202.850,194.000 203.400 M204.400 204.800 C 204.400 205.460,204.580 206.000,204.800 206.000 C 205.020 206.000,205.200 206.540,205.200 207.200 C 205.200 207.860,205.380 208.400,205.600 208.400 C 205.820 208.400,206.000 207.860,206.000 207.200 C 206.000 206.540,205.820 206.000,205.600 206.000 C 205.380 206.000,205.200 205.460,205.200 204.800 C 205.200 204.140,205.020 203.600,204.800 203.600 C 204.580 203.600,204.400 204.140,204.400 204.800 M258.267 203.867 C 257.843 204.290,257.957 206.800,258.400 206.800 C 258.620 206.800,258.800 206.080,258.800 205.200 C 258.800 203.565,258.734 203.400,258.267 203.867 M197.200 205.000 C 197.200 205.550,197.380 206.000,197.600 206.000 C 197.820 206.000,198.000 205.550,198.000 205.000 C 198.000 204.450,197.820 204.000,197.600 204.000 C 197.380 204.000,197.200 204.450,197.200 205.000 M213.200 205.000 C 213.200 205.550,213.380 206.000,213.600 206.000 C 213.820 206.000,214.000 205.550,214.000 205.000 C 214.000 204.450,213.820 204.000,213.600 204.000 C 213.380 204.000,213.200 204.450,213.200 205.000 M178.000 205.600 C 178.000 206.260,178.180 206.800,178.400 206.800 C 178.620 206.800,178.800 206.260,178.800 205.600 C 178.800 204.940,178.620 204.400,178.400 204.400 C 178.180 204.400,178.000 204.940,178.000 205.600 M186.800 205.200 C 186.800 205.640,186.620 206.000,186.400 206.000 C 186.180 206.000,186.000 206.540,186.000 207.200 C 186.000 207.860,186.180 208.400,186.400 208.400 C 186.620 208.400,186.800 207.860,186.800 207.200 C 186.800 206.540,186.980 206.000,187.200 206.000 C 187.420 206.000,187.600 205.640,187.600 205.200 C 187.600 204.760,187.420 204.400,187.200 204.400 C 186.980 204.400,186.800 204.760,186.800 205.200 M193.200 206.600 C 193.200 207.150,193.380 207.600,193.600 207.600 C 193.820 207.600,194.000 207.150,194.000 206.600 C 194.000 206.050,193.820 205.600,193.600 205.600 C 193.380 205.600,193.200 206.050,193.200 206.600 M266.267 205.867 C 265.845 206.288,265.956 208.400,266.400 208.400 C 266.620 208.400,266.800 207.770,266.800 207.000 C 266.800 205.561,266.727 205.406,266.267 205.867 M198.000 207.600 C 198.000 208.040,198.180 208.400,198.400 208.400 C 198.620 208.400,198.800 208.040,198.800 207.600 C 198.800 207.160,198.620 206.800,198.400 206.800 C 198.180 206.800,198.000 207.160,198.000 207.600 M212.400 208.800 C 212.400 209.460,212.580 210.000,212.800 210.000 C 213.020 210.000,213.200 209.460,213.200 208.800 C 213.200 208.140,213.020 207.600,212.800 207.600 C 212.580 207.600,212.400 208.140,212.400 208.800 M257.200 208.200 C 257.200 208.530,257.380 208.800,257.600 208.800 C 257.820 208.800,258.000 208.530,258.000 208.200 C 258.000 207.870,257.820 207.600,257.600 207.600 C 257.380 207.600,257.200 207.870,257.200 208.200 M178.800 209.000 C 178.800 209.550,178.980 210.000,179.200 210.000 C 179.420 210.000,179.600 209.550,179.600 209.000 C 179.600 208.450,179.420 208.000,179.200 208.000 C 178.980 208.000,178.800 208.450,178.800 209.000 M192.400 209.800 C 192.400 210.350,192.580 210.800,192.800 210.800 C 193.020 210.800,193.200 210.350,193.200 209.800 C 193.200 209.250,193.020 208.800,192.800 208.800 C 192.580 208.800,192.400 209.250,192.400 209.800 M255.700 210.210 C 254.445 211.551,254.578 211.813,256.000 210.800 C 256.660 210.330,257.200 209.778,257.200 209.573 C 257.200 208.959,256.654 209.191,255.700 210.210 M265.200 210.000 C 265.200 210.440,265.380 210.800,265.600 210.800 C 265.820 210.800,266.000 210.440,266.000 210.000 C 266.000 209.560,265.820 209.200,265.600 209.200 C 265.380 209.200,265.200 209.560,265.200 210.000 M198.800 210.600 C 198.800 211.150,198.980 211.600,199.200 211.600 C 199.420 211.600,199.600 211.150,199.600 210.600 C 199.600 210.050,199.420 209.600,199.200 209.600 C 198.980 209.600,198.800 210.050,198.800 210.600 M163.600 211.200 C 163.600 211.420,164.140 211.600,164.800 211.600 C 165.460 211.600,166.000 211.420,166.000 211.200 C 166.000 210.980,165.460 210.800,164.800 210.800 C 164.140 210.800,163.600 210.980,163.600 211.200 M166.800 211.200 C 166.800 211.420,167.237 211.600,167.771 211.600 C 168.330 211.600,169.075 212.024,169.529 212.600 C 170.366 213.665,170.800 213.863,170.800 213.182 C 170.800 212.376,168.827 210.800,167.818 210.800 C 167.258 210.800,166.800 210.980,166.800 211.200 M222.800 211.200 C 222.800 211.420,223.250 211.600,223.800 211.600 C 224.350 211.600,224.800 211.420,224.800 211.200 C 224.800 210.980,224.350 210.800,223.800 210.800 C 223.250 210.800,222.800 210.980,222.800 211.200 M225.600 211.200 C 225.600 211.420,226.050 211.600,226.600 211.600 C 227.150 211.600,227.600 211.420,227.600 211.200 C 227.600 210.980,227.150 210.800,226.600 210.800 C 226.050 210.800,225.600 210.980,225.600 211.200 M211.600 212.200 C 211.600 212.750,211.780 213.200,212.000 213.200 C 212.220 213.200,212.400 212.750,212.400 212.200 C 212.400 211.650,212.220 211.200,212.000 211.200 C 211.780 211.200,211.600 211.650,211.600 212.200 M264.400 211.800 C 264.400 212.130,264.580 212.400,264.800 212.400 C 265.020 212.400,265.200 212.130,265.200 211.800 C 265.200 211.470,265.020 211.200,264.800 211.200 C 264.580 211.200,264.400 211.470,264.400 211.800 M179.600 212.800 C 179.600 213.460,179.780 214.000,180.000 214.000 C 180.220 214.000,180.400 213.460,180.400 212.800 C 180.400 212.140,180.220 211.600,180.000 211.600 C 179.780 211.600,179.600 212.140,179.600 212.800 M228.000 212.013 C 228.000 212.239,228.270 212.529,228.600 212.655 C 228.930 212.782,229.200 213.136,229.200 213.443 C 229.200 213.749,229.380 214.000,229.600 214.000 C 230.194 214.000,230.084 212.827,229.429 212.171 C 228.762 211.505,228.000 211.420,228.000 212.013 M252.600 212.000 C 252.464 212.220,252.723 212.400,253.176 212.400 C 253.629 212.400,254.000 212.220,254.000 212.000 C 254.000 211.780,253.741 211.600,253.424 211.600 C 253.107 211.600,252.736 211.780,252.600 212.000 M191.600 213.000 C 191.600 213.550,191.780 214.000,192.000 214.000 C 192.220 214.000,192.400 213.550,192.400 213.000 C 192.400 212.450,192.220 212.000,192.000 212.000 C 191.780 212.000,191.600 212.450,191.600 213.000 M161.696 213.195 C 161.104 214.143,161.030 217.200,161.600 217.200 C 161.820 217.200,162.000 216.300,162.000 215.200 C 162.000 214.100,162.180 213.200,162.400 213.200 C 162.620 213.200,162.800 213.020,162.800 212.800 C 162.800 212.141,162.226 212.346,161.696 213.195 M199.600 213.800 C 199.600 214.350,199.780 214.800,200.000 214.800 C 200.220 214.800,200.400 214.350,200.400 213.800 C 200.400 213.250,200.220 212.800,200.000 212.800 C 199.780 212.800,199.600 213.250,199.600 213.800 M261.900 214.858 C 260.855 215.945,260.000 216.916,260.000 217.017 C 260.000 217.617,261.051 216.970,262.611 215.411 C 264.253 213.768,264.850 212.738,264.100 212.841 C 263.935 212.864,262.945 213.771,261.900 214.858 M220.457 215.447 C 220.457 217.672,221.536 219.600,222.782 219.600 C 223.463 219.600,223.265 219.166,222.200 218.329 C 221.353 217.662,221.200 217.210,221.200 215.371 C 221.200 214.177,221.033 213.200,220.829 213.200 C 220.624 213.200,220.457 214.211,220.457 215.447 M170.800 215.176 C 170.800 215.849,170.980 216.400,171.200 216.400 C 171.420 216.400,171.600 215.961,171.600 215.424 C 171.600 214.887,171.420 214.336,171.200 214.200 C 170.967 214.056,170.800 214.463,170.800 215.176 M210.800 215.824 C 210.800 216.671,210.962 217.147,211.200 217.000 C 211.420 216.864,211.600 216.223,211.600 215.576 C 211.600 214.929,211.420 214.400,211.200 214.400 C 210.980 214.400,210.800 215.041,210.800 215.824 M180.400 215.976 C 180.400 216.649,180.580 217.200,180.800 217.200 C 181.020 217.200,181.200 216.761,181.200 216.224 C 181.200 215.687,181.020 215.136,180.800 215.000 C 180.567 214.856,180.400 215.263,180.400 215.976 M190.800 216.000 C 190.800 216.660,190.980 217.200,191.200 217.200 C 191.420 217.200,191.600 216.660,191.600 216.000 C 191.600 215.340,191.420 214.800,191.200 214.800 C 190.980 214.800,190.800 215.340,190.800 216.000 M200.400 216.576 C 200.400 217.113,200.580 217.664,200.800 217.800 C 201.033 217.944,201.200 217.537,201.200 216.824 C 201.200 216.151,201.020 215.600,200.800 215.600 C 200.580 215.600,200.400 216.039,200.400 216.576 M229.200 217.400 C 229.200 217.730,229.380 218.000,229.600 218.000 C 229.820 218.000,230.000 217.730,230.000 217.400 C 230.000 217.070,229.820 216.800,229.600 216.800 C 229.380 216.800,229.200 217.070,229.200 217.400 M258.400 217.600 C 258.400 217.820,258.670 218.000,259.000 218.000 C 259.330 218.000,259.600 217.820,259.600 217.600 C 259.600 217.380,259.330 217.200,259.000 217.200 C 258.670 217.200,258.400 217.380,258.400 217.600 M162.000 218.029 C 162.000 218.582,163.018 219.600,163.571 219.600 C 164.194 219.600,164.102 219.302,163.200 218.400 C 162.298 217.498,162.000 217.406,162.000 218.029 M170.000 218.200 C 170.000 218.530,169.730 218.800,169.400 218.800 C 169.070 218.800,168.800 218.980,168.800 219.200 C 168.800 219.782,169.568 219.690,170.229 219.029 C 170.890 218.368,170.982 217.600,170.400 217.600 C 170.180 217.600,170.000 217.870,170.000 218.200 M190.000 218.800 C 190.000 219.240,190.180 219.600,190.400 219.600 C 190.620 219.600,190.800 219.240,190.800 218.800 C 190.800 218.360,190.620 218.000,190.400 218.000 C 190.180 218.000,190.000 218.360,190.000 218.800 M210.000 218.800 C 210.000 219.240,210.180 219.600,210.400 219.600 C 210.620 219.600,210.800 219.240,210.800 218.800 C 210.800 218.360,210.620 218.000,210.400 218.000 C 210.180 218.000,210.000 218.360,210.000 218.800 M256.600 218.400 C 256.736 218.620,257.107 218.800,257.424 218.800 C 257.741 218.800,258.000 218.620,258.000 218.400 C 258.000 218.180,257.629 218.000,257.176 218.000 C 256.723 218.000,256.464 218.180,256.600 218.400 M181.200 219.000 C 181.200 219.330,181.380 219.600,181.600 219.600 C 181.820 219.600,182.000 219.330,182.000 219.000 C 182.000 218.670,181.820 218.400,181.600 218.400 C 181.380 218.400,181.200 218.670,181.200 219.000 M201.200 219.000 C 201.200 219.330,201.380 219.600,201.600 219.600 C 201.820 219.600,202.000 219.330,202.000 219.000 C 202.000 218.670,201.820 218.400,201.600 218.400 C 201.380 218.400,201.200 218.670,201.200 219.000 M253.200 219.200 C 253.200 219.420,253.740 219.600,254.400 219.600 C 255.060 219.600,255.600 219.420,255.600 219.200 C 255.600 218.980,255.060 218.800,254.400 218.800 C 253.740 218.800,253.200 218.980,253.200 219.200 M164.400 220.000 C 164.400 220.220,165.199 220.400,166.176 220.400 C 167.153 220.400,168.064 220.220,168.200 220.000 C 168.352 219.753,167.671 219.600,166.424 219.600 C 165.311 219.600,164.400 219.780,164.400 220.000 M223.600 220.000 C 223.600 220.220,224.320 220.400,225.200 220.400 C 226.080 220.400,226.800 220.220,226.800 220.000 C 226.800 219.780,226.080 219.600,225.200 219.600 C 224.320 219.600,223.600 219.780,223.600 220.000 " stroke="none" fill="#989898" fill-rule="evenodd"></path><path id="path1" d="M158.520 187.200 C 158.520 188.410,158.595 188.905,158.687 188.300 C 158.778 187.695,158.778 186.705,158.687 186.100 C 158.595 185.495,158.520 185.990,158.520 187.200 M142.181 205.200 C 142.181 213.230,142.234 216.515,142.299 212.500 C 142.365 208.485,142.365 201.915,142.299 197.900 C 142.234 193.885,142.181 197.170,142.181 205.200 " stroke="none" fill="#bcbcbc" fill-rule="evenodd"></path><path id="path2" d="M244.900 184.700 L 236.800 184.817 236.800 202.208 L 236.800 219.600 244.157 219.600 C 250.525 219.600,251.547 219.514,251.759 218.962 C 251.949 218.467,252.454 218.354,254.002 218.462 C 255.408 218.559,256.000 218.452,256.000 218.100 C 256.000 217.825,256.450 217.600,257.000 217.600 C 257.550 217.600,258.000 217.464,258.000 217.298 C 258.000 217.131,258.571 216.743,259.268 216.434 C 260.594 215.847,262.577 213.841,263.600 212.050 C 263.930 211.472,264.317 210.910,264.460 210.800 C 264.602 210.690,264.787 210.150,264.869 209.600 C 264.952 209.050,265.195 208.630,265.409 208.667 C 265.636 208.706,265.744 207.856,265.667 206.643 C 265.570 205.103,265.701 204.414,266.167 204.027 C 266.844 203.466,267.108 199.362,266.442 199.774 C 265.929 200.091,265.600 199.005,265.600 196.991 C 265.600 196.032,265.420 195.136,265.200 195.000 C 264.980 194.864,264.800 194.313,264.800 193.776 C 264.800 193.239,264.620 192.800,264.400 192.800 C 264.180 192.800,264.000 192.546,264.000 192.236 C 264.000 190.991,258.812 186.400,257.405 186.400 C 257.072 186.400,256.800 186.220,256.800 186.000 C 256.800 185.780,256.170 185.600,255.400 185.600 C 254.422 185.600,254.000 185.419,254.000 185.000 C 254.000 184.670,253.775 184.441,253.500 184.491 C 253.225 184.541,249.355 184.635,244.900 184.700 M132.272 185.061 C 132.122 185.211,132.000 186.378,132.000 187.655 L 132.000 189.976 137.100 190.088 L 142.200 190.200 142.305 204.900 L 142.410 219.600 145.805 219.600 L 149.200 219.600 149.200 204.813 L 149.200 190.026 153.700 189.913 L 158.200 189.800 158.200 187.400 L 158.200 185.000 145.372 184.895 C 138.317 184.837,132.422 184.912,132.272 185.061 M174.400 185.376 C 174.400 185.693,174.601 186.077,174.846 186.228 C 175.112 186.393,175.208 187.127,175.084 188.052 C 174.921 189.267,175.008 189.600,175.490 189.600 C 175.981 189.600,176.063 189.960,175.901 191.400 C 175.742 192.813,175.825 193.200,176.289 193.200 C 176.743 193.200,176.848 193.611,176.740 194.967 C 176.658 195.999,176.766 196.706,177.000 196.667 C 177.220 196.630,177.394 197.320,177.387 198.200 C 177.379 199.082,177.604 199.943,177.887 200.120 C 178.169 200.296,178.400 201.151,178.400 202.020 C 178.400 202.903,178.594 203.600,178.840 203.600 C 179.117 203.600,179.227 204.270,179.137 205.400 C 179.032 206.722,179.139 207.200,179.539 207.200 C 179.933 207.200,180.042 207.641,179.932 208.792 C 179.833 209.832,179.957 210.451,180.290 210.579 C 180.585 210.692,180.800 211.445,180.800 212.364 C 180.800 213.238,180.997 214.074,181.238 214.223 C 181.478 214.372,181.608 215.192,181.527 216.047 C 181.425 217.117,181.538 217.600,181.889 217.600 C 182.170 217.600,182.400 218.050,182.400 218.600 C 182.400 219.593,182.427 219.600,186.000 219.600 C 189.550 219.600,189.600 219.586,189.600 218.624 C 189.600 218.087,189.780 217.536,190.000 217.400 C 190.220 217.264,190.400 216.544,190.400 215.800 C 190.400 215.056,190.580 214.336,190.800 214.200 C 191.020 214.064,191.200 213.333,191.200 212.576 C 191.200 211.727,191.395 211.200,191.711 211.200 C 192.065 211.200,192.174 210.711,192.069 209.600 C 191.957 208.432,192.065 208.000,192.469 208.000 C 192.872 208.000,192.980 207.568,192.869 206.400 C 192.757 205.232,192.865 204.800,193.269 204.800 C 193.672 204.800,193.780 204.368,193.669 203.200 C 193.556 202.021,193.664 201.600,194.078 201.600 C 194.484 201.600,194.594 201.213,194.476 200.204 C 194.362 199.221,194.491 198.740,194.913 198.578 C 195.286 198.435,195.431 198.041,195.299 197.534 C 195.132 196.898,195.251 196.751,195.843 196.865 C 196.413 196.975,196.600 197.355,196.600 198.405 C 196.600 199.172,196.850 199.996,197.155 200.235 C 197.504 200.508,197.641 201.140,197.524 201.935 C 197.395 202.813,197.501 203.200,197.869 203.200 C 198.209 203.200,198.400 203.703,198.400 204.600 C 198.400 205.370,198.600 206.000,198.844 206.000 C 199.115 206.000,199.224 206.541,199.125 207.389 C 199.016 208.329,199.144 208.847,199.525 208.993 C 199.906 209.139,200.034 209.656,199.924 210.604 C 199.811 211.566,199.922 212.000,200.280 212.000 C 200.606 212.000,200.800 212.514,200.800 213.376 C 200.800 214.133,200.997 214.875,201.238 215.024 C 201.480 215.173,201.602 215.807,201.510 216.432 C 201.407 217.136,201.545 217.647,201.872 217.772 C 202.162 217.884,202.400 218.341,202.400 218.787 C 202.400 219.544,202.648 219.600,206.000 219.600 L 209.600 219.600 209.600 218.433 C 209.600 217.792,209.820 217.193,210.090 217.103 C 210.400 217.000,210.536 216.326,210.459 215.270 C 210.373 214.074,210.492 213.600,210.880 213.600 C 211.267 213.600,211.379 213.159,211.273 212.047 C 211.192 211.192,211.322 210.372,211.562 210.223 C 211.803 210.074,212.000 209.238,212.000 208.364 C 212.000 207.445,212.215 206.692,212.510 206.579 C 212.843 206.451,212.967 205.832,212.868 204.792 C 212.758 203.641,212.867 203.200,213.261 203.200 C 213.661 203.200,213.768 202.722,213.663 201.400 C 213.573 200.270,213.683 199.600,213.960 199.600 C 214.207 199.600,214.400 198.894,214.400 197.987 C 214.400 197.036,214.612 196.293,214.918 196.176 C 215.258 196.046,215.378 195.476,215.267 194.521 C 215.157 193.585,215.294 192.910,215.648 192.632 C 215.953 192.393,216.200 191.484,216.200 190.600 C 216.200 189.634,216.378 189.033,216.649 189.083 C 216.950 189.139,217.032 188.579,216.897 187.383 C 216.732 185.919,216.813 185.600,217.348 185.600 C 217.707 185.600,218.000 185.420,218.000 185.200 C 218.000 184.965,216.600 184.800,214.600 184.800 L 211.200 184.800 211.200 186.000 C 211.200 186.752,210.995 187.200,210.649 187.200 C 210.233 187.200,210.148 187.639,210.300 188.993 C 210.455 190.363,210.359 190.841,209.893 191.020 C 209.436 191.195,209.336 191.647,209.493 192.820 C 209.644 193.944,209.545 194.446,209.142 194.601 C 208.752 194.751,208.627 195.301,208.732 196.405 C 208.836 197.496,208.711 198.059,208.332 198.205 C 207.949 198.352,207.828 198.918,207.937 200.056 C 208.040 201.134,207.911 201.808,207.560 202.025 C 207.222 202.234,207.070 202.947,207.144 203.977 C 207.227 205.132,207.105 205.600,206.720 205.600 C 206.330 205.600,206.221 206.047,206.331 207.200 C 206.468 208.632,206.391 208.800,205.597 208.800 C 204.842 208.800,204.735 208.624,204.882 207.624 C 204.984 206.925,204.881 206.479,204.627 206.524 C 204.392 206.566,204.142 205.970,204.071 205.200 C 204.001 204.430,203.776 203.629,203.571 203.420 C 203.367 203.211,203.200 202.446,203.200 201.720 C 203.200 200.994,203.000 200.400,202.756 200.400 C 202.485 200.400,202.376 199.859,202.475 199.011 C 202.584 198.071,202.456 197.553,202.075 197.407 C 201.695 197.262,201.566 196.744,201.675 195.807 C 201.784 194.870,201.655 194.353,201.275 194.207 C 200.894 194.061,200.766 193.544,200.876 192.596 C 200.994 191.587,200.884 191.200,200.478 191.200 C 200.064 191.200,199.956 190.779,200.069 189.600 C 200.174 188.489,200.065 188.000,199.711 188.000 C 199.394 188.000,199.200 187.470,199.200 186.608 C 199.200 184.962,198.557 184.685,195.179 184.876 L 193.000 185.000 192.876 186.500 C 192.806 187.343,192.539 188.000,192.265 188.000 C 191.939 188.000,191.829 188.527,191.931 189.600 C 192.043 190.768,191.935 191.200,191.531 191.200 C 191.128 191.200,191.020 191.632,191.131 192.800 C 191.244 193.979,191.136 194.400,190.722 194.400 C 190.316 194.400,190.206 194.787,190.324 195.796 C 190.434 196.744,190.306 197.261,189.925 197.407 C 189.545 197.553,189.416 198.070,189.525 199.007 C 189.634 199.944,189.505 200.462,189.125 200.607 C 188.745 200.753,188.616 201.270,188.725 202.207 C 188.834 203.144,188.705 203.662,188.325 203.807 C 187.949 203.952,187.815 204.467,187.920 205.364 C 188.006 206.102,187.879 206.827,187.638 206.976 C 187.397 207.125,187.200 207.597,187.200 208.024 C 187.200 208.549,186.925 208.800,186.348 208.800 C 185.575 208.800,185.515 208.633,185.699 207.000 C 185.858 205.587,185.775 205.200,185.311 205.200 C 184.855 205.200,184.752 204.786,184.863 203.400 C 184.962 202.145,184.853 201.600,184.503 201.600 C 184.175 201.600,184.000 200.983,184.000 199.824 C 184.000 198.847,183.799 197.923,183.553 197.771 C 183.271 197.597,183.194 196.851,183.345 195.750 C 183.519 194.482,183.449 194.032,183.092 194.103 C 182.755 194.169,182.608 193.600,182.625 192.300 C 182.644 190.900,182.499 190.400,182.073 190.400 C 181.627 190.400,181.541 189.997,181.696 188.623 C 181.841 187.342,181.743 186.787,181.348 186.636 C 181.047 186.520,180.800 186.059,180.800 185.613 C 180.800 184.864,180.550 184.800,177.600 184.800 C 175.080 184.800,174.400 184.923,174.400 185.376 M248.800 190.439 C 248.800 190.740,249.555 190.791,251.200 190.600 C 252.845 190.409,253.600 190.460,253.600 190.761 C 253.600 191.002,253.931 191.200,254.335 191.200 C 255.171 191.200,258.400 194.464,258.400 195.310 C 258.400 195.616,258.533 195.999,258.695 196.161 C 259.206 196.673,259.085 207.200,258.568 207.200 C 258.296 207.200,258.188 207.605,258.302 208.200 C 258.414 208.784,258.307 209.200,258.047 209.200 C 257.801 209.200,257.600 209.438,257.600 209.728 C 257.600 210.779,254.056 213.129,253.235 212.622 C 252.993 212.472,252.686 212.631,252.554 212.975 C 252.356 213.491,251.521 213.600,247.757 213.600 L 243.200 213.600 243.200 202.067 C 243.200 195.723,243.320 190.413,243.467 190.267 C 243.929 189.804,248.800 189.962,248.800 190.439 M163.300 213.010 C 162.295 214.084,162.084 216.580,162.913 217.600 C 164.001 218.940,168.000 219.986,168.000 218.931 C 168.000 218.639,168.360 218.400,168.800 218.400 C 169.333 218.400,169.600 218.133,169.600 217.600 C 169.600 217.160,169.834 216.800,170.121 216.800 C 170.442 216.800,170.657 216.263,170.681 215.400 C 170.708 214.447,170.542 214.000,170.160 214.000 C 169.852 214.000,169.600 213.807,169.600 213.571 C 169.600 211.770,164.857 211.347,163.300 213.010 M222.470 212.926 C 220.438 215.088,222.009 219.198,224.867 219.200 C 225.454 219.200,226.219 219.309,226.567 219.443 C 226.954 219.591,227.200 219.473,227.200 219.139 C 227.200 218.838,227.547 218.376,227.970 218.111 C 228.394 217.847,228.803 217.219,228.880 216.715 C 228.963 216.165,229.250 215.852,229.598 215.930 C 230.045 216.030,230.020 215.885,229.489 215.298 C 229.110 214.879,228.800 214.264,228.800 213.930 C 228.800 211.926,224.108 211.181,222.470 212.926 " stroke="none" fill="#fcfcfc" fill-rule="evenodd"></path><path id="path3" d="M174.000 185.552 C 174.000 185.830,174.270 186.327,174.600 186.657 C 175.367 187.424,175.358 186.842,174.587 185.824 C 174.258 185.388,174.000 185.269,174.000 185.552 M256.543 185.800 C 256.873 186.130,257.240 186.400,257.359 186.400 C 257.478 186.400,257.471 186.130,257.345 185.800 C 257.218 185.470,256.851 185.200,256.529 185.200 C 256.021 185.200,256.022 185.280,256.543 185.800 M260.800 188.237 C 260.800 188.402,262.798 190.400,262.963 190.400 C 263.032 190.400,263.006 189.968,262.905 189.439 C 262.760 188.679,260.800 187.560,260.800 188.237 M131.654 189.517 L 131.600 190.835 136.999 190.777 C 140.075 190.744,142.302 190.564,142.175 190.360 C 142.053 190.162,139.726 190.000,137.004 190.000 C 132.190 190.000,132.051 189.975,131.882 189.100 C 131.759 188.458,131.693 188.578,131.654 189.517 M153.700 189.899 C 147.713 190.068,147.794 190.800,153.800 190.800 C 157.622 190.800,158.400 190.699,158.400 190.200 C 158.400 189.870,158.355 189.638,158.300 189.686 C 158.245 189.733,156.175 189.828,153.700 189.899 M209.600 190.400 C 209.283 190.596,209.156 190.889,209.318 191.052 C 209.481 191.214,209.823 191.137,210.080 190.880 C 210.684 190.276,210.347 189.938,209.600 190.400 M243.437 190.340 C 243.322 190.527,244.481 190.716,246.014 190.761 C 247.749 190.812,248.800 190.683,248.800 190.421 C 248.800 189.915,243.747 189.839,243.437 190.340 M263.490 191.291 C 263.711 191.571,263.993 192.070,264.115 192.400 C 264.266 192.810,264.347 192.728,264.368 192.143 C 264.386 191.671,264.105 191.172,263.743 191.034 C 263.252 190.845,263.188 190.910,263.490 191.291 M256.000 192.600 C 256.746 193.370,257.447 194.000,257.557 194.000 C 257.667 194.000,257.146 193.370,256.400 192.600 C 255.654 191.830,254.953 191.200,254.843 191.200 C 254.733 191.200,255.254 191.830,256.000 192.600 M215.467 192.667 C 214.981 193.153,215.190 193.579,215.800 193.345 C 216.130 193.218,216.400 192.954,216.400 192.757 C 216.400 192.338,215.849 192.284,215.467 192.667 M208.800 194.000 C 208.483 194.196,208.356 194.489,208.518 194.652 C 208.681 194.814,209.023 194.737,209.280 194.480 C 209.884 193.876,209.547 193.538,208.800 194.000 M176.506 196.342 C 176.540 196.803,176.801 197.268,177.084 197.377 C 177.751 197.633,177.721 197.194,177.009 196.253 C 176.464 195.533,176.445 195.536,176.506 196.342 M258.000 196.324 C 258.000 196.539,258.285 196.824,258.633 196.957 C 259.023 197.107,259.206 197.018,259.108 196.725 C 258.909 196.127,258.000 195.798,258.000 196.324 M201.692 196.875 C 201.891 197.473,202.800 197.802,202.800 197.276 C 202.800 197.061,202.515 196.776,202.167 196.643 C 201.777 196.493,201.594 196.582,201.692 196.875 M183.232 196.854 C 183.214 196.994,183.469 197.624,183.798 198.254 L 184.395 199.400 184.398 198.276 C 184.399 197.658,184.235 197.255,184.034 197.379 C 183.833 197.503,183.577 197.379,183.466 197.102 C 183.354 196.826,183.249 196.714,183.232 196.854 M265.638 198.200 C 265.601 199.347,266.210 200.231,266.601 199.598 C 266.767 199.330,266.726 198.996,266.511 198.855 C 266.296 198.715,266.017 198.330,265.892 198.000 C 265.727 197.567,265.656 197.622,265.638 198.200 M214.446 198.900 C 214.421 199.285,214.220 199.600,214.000 199.600 C 213.780 199.600,213.600 199.883,213.600 200.229 C 213.600 200.800,213.657 200.800,214.229 200.228 C 214.575 199.882,214.776 199.284,214.676 198.899 C 214.502 198.234,214.491 198.234,214.446 198.900 M202.400 200.013 C 202.400 200.226,202.567 200.400,202.771 200.400 C 202.975 200.400,203.224 200.715,203.324 201.100 C 203.469 201.652,203.517 201.619,203.554 200.943 C 203.579 200.471,203.330 199.982,203.000 199.855 C 202.670 199.729,202.400 199.799,202.400 200.013 M207.260 201.466 C 206.619 202.161,206.799 202.495,207.560 202.025 C 207.856 201.842,208.031 201.509,207.949 201.286 C 207.863 201.050,207.572 201.126,207.260 201.466 M178.046 202.929 C 178.021 203.329,178.270 203.927,178.600 204.257 C 179.133 204.790,179.200 204.787,179.200 204.229 C 179.200 203.883,179.033 203.600,178.829 203.600 C 178.625 203.600,178.376 203.285,178.276 202.900 C 178.108 202.257,178.089 202.259,178.046 202.929 M266.100 204.057 C 265.825 204.333,265.600 204.897,265.600 205.309 C 265.600 205.989,265.657 206.000,266.229 205.428 C 266.575 205.082,266.800 204.518,266.729 204.176 C 266.625 203.676,266.502 203.652,266.100 204.057 M198.046 205.457 C 198.021 205.929,198.270 206.418,198.600 206.545 C 198.930 206.671,199.200 206.601,199.200 206.387 C 199.200 206.174,199.033 206.000,198.829 206.000 C 198.625 206.000,198.376 205.685,198.276 205.300 C 198.131 204.748,198.083 204.781,198.046 205.457 M204.025 205.800 C 204.025 206.020,204.290 206.549,204.613 206.976 C 204.936 207.404,205.200 207.573,205.200 207.353 C 205.200 207.133,204.936 206.604,204.613 206.176 C 204.290 205.749,204.025 205.580,204.025 205.800 M187.300 206.288 C 187.025 206.386,186.800 206.852,186.800 207.322 C 186.800 208.172,186.805 208.172,187.441 207.263 C 188.131 206.278,188.091 206.005,187.300 206.288 M212.267 206.667 C 211.781 207.153,211.990 207.579,212.600 207.345 C 212.930 207.218,213.200 206.954,213.200 206.757 C 213.200 206.338,212.649 206.284,212.267 206.667 M198.800 209.124 C 198.800 209.339,199.085 209.624,199.433 209.757 C 199.823 209.907,200.006 209.818,199.908 209.525 C 199.709 208.927,198.800 208.598,198.800 209.124 M211.884 209.400 C 211.727 209.840,211.481 210.467,211.335 210.793 C 211.147 211.216,211.270 211.187,211.765 210.692 C 212.146 210.311,212.393 209.684,212.313 209.299 C 212.184 208.681,212.135 208.692,211.884 209.400 M179.600 210.724 C 179.600 210.939,179.885 211.224,180.233 211.357 C 180.623 211.507,180.806 211.418,180.708 211.125 C 180.509 210.527,179.600 210.198,179.600 210.724 M255.134 211.469 C 254.768 211.566,254.378 211.881,254.267 212.170 C 254.107 212.586,254.265 212.602,255.030 212.247 C 255.560 212.001,255.995 211.665,255.997 211.500 C 255.999 211.335,255.955 211.221,255.900 211.246 C 255.845 211.272,255.500 211.372,255.134 211.469 M221.867 212.497 C 220.861 213.552,221.417 213.960,222.451 212.926 C 222.908 212.470,223.128 212.014,222.940 211.912 C 222.753 211.810,222.270 212.073,221.867 212.497 M262.229 213.940 L 260.658 215.800 262.423 214.200 C 263.394 213.320,264.247 212.573,264.320 212.540 C 264.393 212.507,264.306 212.390,264.127 212.280 C 263.947 212.170,263.093 212.917,262.229 213.940 M180.402 213.329 C 180.401 213.729,180.670 214.327,181.000 214.657 C 181.757 215.414,181.757 215.193,181.002 213.746 C 180.576 212.927,180.404 212.808,180.402 213.329 M190.869 214.039 C 190.580 214.500,190.447 214.980,190.572 215.106 C 190.698 215.231,190.800 215.113,190.800 214.843 C 190.800 214.573,190.980 214.464,191.200 214.600 C 191.420 214.736,191.600 214.477,191.600 214.024 C 191.600 212.995,191.520 212.996,190.869 214.039 M228.800 214.389 C 228.800 214.589,228.996 214.874,229.235 215.022 C 229.548 215.215,229.548 215.412,229.235 215.725 C 228.641 216.319,228.687 216.818,229.314 216.578 C 230.043 216.298,230.103 214.525,229.392 214.252 C 229.067 214.127,228.800 214.189,228.800 214.389 M190.153 216.970 C 189.792 217.749,189.812 217.894,190.253 217.724 C 190.554 217.609,190.800 217.174,190.800 216.757 C 190.800 215.770,190.693 215.805,190.153 216.970 M169.632 217.700 C 169.653 218.301,169.739 218.401,169.892 218.000 C 170.017 217.670,170.318 217.268,170.560 217.106 C 170.831 216.925,170.732 216.810,170.300 216.806 C 169.830 216.802,169.610 217.095,169.632 217.700 M201.200 217.924 C 201.200 218.139,201.485 218.424,201.833 218.557 C 202.223 218.707,202.406 218.618,202.308 218.325 C 202.109 217.727,201.200 217.398,201.200 217.924 M228.256 217.878 C 227.805 218.328,227.981 218.800,228.600 218.800 C 228.930 218.800,229.200 218.631,229.200 218.424 C 229.200 217.919,228.575 217.558,228.256 217.878 M163.855 219.000 C 163.982 219.330,164.461 219.600,164.919 219.600 C 165.738 219.600,165.739 219.590,164.976 219.013 C 163.972 218.253,163.567 218.248,163.855 219.000 M251.784 218.827 C 251.435 219.391,251.962 219.902,252.322 219.348 C 252.475 219.113,252.870 218.817,253.200 218.692 C 253.608 218.536,253.520 218.453,252.924 218.432 C 252.442 218.414,251.929 218.592,251.784 218.827 " stroke="none" fill="#c4c4c4" fill-rule="evenodd"></path><path id="path4" d="M138.700 184.699 C 142.275 184.766,148.125 184.766,151.700 184.699 C 155.275 184.633,152.350 184.579,145.200 184.579 C 138.050 184.579,135.125 184.633,138.700 184.699 M175.200 184.648 C 177.516 184.945,181.112 184.977,180.939 184.700 C 180.837 184.535,179.278 184.427,177.476 184.460 C 175.674 184.493,174.650 184.578,175.200 184.648 M194.700 184.689 C 195.415 184.778,196.585 184.778,197.300 184.689 C 198.015 184.601,197.430 184.528,196.000 184.528 C 194.570 184.528,193.985 184.601,194.700 184.689 M211.067 184.667 C 210.920 184.813,210.803 185.128,210.806 185.367 C 210.810 185.637,210.928 185.618,211.119 185.318 C 211.306 185.023,212.743 184.782,214.813 184.699 L 218.200 184.563 214.767 184.481 C 212.878 184.437,211.213 184.520,211.067 184.667 M236.583 184.900 C 236.478 185.175,236.440 193.140,236.500 202.600 L 236.609 219.800 236.704 202.309 L 236.800 184.817 244.500 184.699 L 252.200 184.582 244.487 184.491 C 238.618 184.422,236.729 184.519,236.583 184.900 M262.800 189.500 C 262.800 189.691,263.061 190.196,263.380 190.624 C 263.940 191.373,263.952 191.368,263.732 190.494 C 263.504 189.591,262.800 188.840,262.800 189.500 M243.390 202.000 L 243.400 213.400 247.301 213.423 L 251.202 213.446 247.407 213.309 L 243.612 213.171 243.497 201.886 L 243.381 190.600 243.390 202.000 M162.806 212.300 C 162.810 212.750,162.917 212.836,163.106 212.540 C 163.268 212.288,163.850 211.997,164.400 211.895 C 165.247 211.737,165.201 211.701,164.100 211.654 C 163.106 211.613,162.801 211.765,162.806 212.300 " stroke="none" fill="#b4b4b4" fill-rule="evenodd"></path></g></svg>